<?xml version="1.0" encoding="utf-8"?>
<!-- Generator: Adobe Illustrator 22.1.0, SVG Export Plug-In . SVG Version: 6.00 Build 0)  -->
<svg version="1.1" id="Layer_1" xmlns="http://www.w3.org/2000/svg" xmlns:xlink="http://www.w3.org/1999/xlink" x="0px" y="0px"
	 viewBox="0 0 220 38" style="enable-background:new 0 0 220 38;" xml:space="preserve">
<g>
	<g>
		<path style="fill:#FFFFFF;" d="M61.1,13c-5.2-1-8-2.3-8-5.8V7.1c0-2.9,2.8-5,6.6-5c3.2,0,5.7,0.9,8.2,3L68,5.2l1.5-1.8l-0.1-0.1
			C66.3,0.9,63.7,0,59.8,0c-5.2,0-9.1,3.1-9.1,7.3v0.1c0,4.2,2.7,6.4,9.5,7.8c5,1,7.7,2.2,7.7,5.6v0.1c0,3.1-2.8,5.2-6.9,5.2
			c-3.9,0-6.7-1.1-9.9-4L51.1,22l-1.5,1.7l0.1,0.1c3.5,3,6.9,4.4,11.3,4.4c5.5,0,9.3-3.1,9.3-7.6v-0.1C70.3,16.5,67.5,14.2,61.1,13z
			"/>
	</g>
	<polygon style="fill:#28C8C8;" points="166.6,0.3 177.5,27.9 183.3,27.9 194.2,0.3 188.5,0.3 180.4,20.7 172.3,0.3 	"/>
	<polygon style="fill:#28C8C8;" points="220,6 220,0.3 205,0.3 199.3,0.3 199.3,6 199.3,11.2 199.3,17 199.3,22.2 199.3,27.9 
		205,27.9 220,27.9 220,22.2 205,22.2 205,17 217.7,17 217.7,11.2 205,11.2 205,6 	"/>
	<g>
		<polygon style="fill:#FFFFFF;" points="120.5,2.6 120.5,0.3 103.2,0.3 100.9,0.3 100.9,2.6 100.9,13 100.9,15.3 100.9,25.6 
			100.9,27.9 103.2,27.9 120.5,27.9 120.5,25.6 103.2,25.6 103.2,15.3 118.2,15.3 118.2,13 103.2,13 103.2,2.6 		"/>
	</g>
	<path style="fill:#28C8C8;" d="M136.2,6c4.4,0,8.1,3.6,8.1,8.1s-3.6,8.1-8.1,8.1h-3.5V6H136.2 M136.2,0.3H127v27.6h9.2
		c7.6,0,13.8-6.2,13.8-13.8S143.8,0.3,136.2,0.3L136.2,0.3z"/>
	<rect x="155.8" y="0.3" style="fill:#28C8C8;" width="5.8" height="27.6"/>
	<rect x="155.8" y="32.2" style="fill:#28C8C8;" width="5.8" height="5.8"/>
	<g>
		<polygon style="fill:#FFFFFF;" points="21.7,27.9 32.7,2.9 43.6,27.9 45.9,27.9 33.8,0.3 31.5,0.3 19.4,27.9 		"/>
	</g>
	<g>
		<polygon style="fill:#FFFFFF;" points="86,0.3 83.7,0.3 74.5,0.3 74.5,2.6 83.7,2.6 83.7,22.2 83.7,27.9 86,27.9 86,22.2 86,2.6 
			95.2,2.6 95.2,0.3 		"/>
	</g>
	<g>
		<polygon style="fill:#FFFFFF;" points="11.5,0.3 9.2,0.3 0,0.3 0,2.6 9.2,2.6 9.2,22.2 9.2,27.9 11.5,27.9 11.5,22.2 11.5,2.6 
			20.7,2.6 20.7,0.3 		"/>
	</g>
</g>
</svg>
